<svg width="120" height="120" viewBox="0 0 120 120" fill="none" xmlns="http://www.w3.org/2000/svg">
  <defs>
    <linearGradient id="yaap-gradient" x1="20" y1="20" x2="100" y2="100" gradientUnits="userSpaceOnUse">
      <stop offset="0%" stop-color="#8B5CF6"/>
      <stop offset="50%" stop-color="#D946EF"/>
      <stop offset="100%" stop-color="#FB923C"/>
    </linearGradient>
  </defs>
  
  <!-- Y shape -->
  <path d="M 30 30 Q 35 35 45 50 L 60 75 L 60 95 Q 60 100 55 100 L 50 100 Q 45 100 45 95 L 45 75 L 30 50 Q 25 40 30 30 Z" fill="url(#yaap-gradient)"/>
  <path d="M 90 30 Q 85 35 75 50 L 60 75 L 60 95 Q 60 100 65 100 L 70 100 Q 75 100 75 95 L 75 75 L 90 50 Q 95 40 90 30 Z" fill="url(#yaap-gradient)"/>
  
  <!-- Dot -->
  <circle cx="85" cy="95" r="8" fill="url(#yaap-gradient)"/>
  
  <!-- Exclamation marks (top right) -->
  <rect x="95" y="25" width="4" height="12" rx="2" fill="url(#yaap-gradient)" opacity="0.6"/>
  <rect x="105" y="30" width="4" height="12" rx="2" fill="url(#yaap-gradient)" opacity="0.6"/>
</svg>
